# Apple ModelIO OBJ File: star
g 
v 24.1652 0 72.0826
v 37.082 26.9417 120
v 7.46744 22.9824 72.0826
v 0 0 87.0175
v 60 43.5925 74.1641
v 19.55 14.2039 47.9174
v -7.46744 22.9824 47.9174
v 22.918 70.5342 45.8359
v 14.1641 43.5925 -4e-06
v 0 0 32.9825
v -14.1641 43.5925 120
v -19.55 14.2039 72.0826
v -22.918 70.5342 74.1641
v -24.1652 0 47.9174
v -60 43.5925 45.8359
v -37.082 26.9417 8e-06
v -45.8359 0 120
v -19.55 -14.2039 72.0826
v -74.1641 0 74.1641
v -7.46744 -22.9824 47.9174
v -60 -43.5925 45.8359
v -37.082 -26.9417 8e-06
v -14.1641 -43.5925 120
v 7.46744 -22.9824 72.0826
v -22.918 -70.5342 74.1641
v 19.55 -14.2039 47.9174
v 22.918 -70.5342 45.8359
v 14.1641 -43.5925 -4e-06
v 37.082 -26.9417 120
v 60 -43.5925 74.1641
v 74.1641 0 45.8359
v 45.8359 0 0
vn 0.894427 0 0.447214
vn 0.709302 0.515338 -0.480954
vn 0.259161 -0.870056 0.41933
vn 0.276393 0.850651 0.447214
vn -0.747387 0.515338 0.419331
vn 0 0 1
vn -0.030812 -0.022386 0.999274
vn -0.309014 0.833835 -0.457416
vn 0.697533 -0.55156 -0.457416
vn 0.723607 0.525731 -0.447214
vn -0.276393 0.850651 -0.447214
vn -0.740114 0.492952 0.457416
vn -0.011769 -0.036221 -0.999274
vn 0.888515 -0.036221 0.457416
vn 0.721071 -0.55156 -0.41933
vn 0.27093 0.833835 0.480953
vn 0 0 -1
vn -0.907558 -0.022386 -0.41933
vn -0.27093 0.833835 -0.480953
vn 0.907558 -0.022386 0.41933
vn -0.723607 0.525731 0.447213
vn -0.721071 -0.55156 0.41933
vn 0.011769 -0.036221 0.999274
vn -0.888515 -0.036221 -0.457416
vn 0.740114 0.492953 -0.457415
vn -0.894427 0 -0.447214
vn -0.697534 -0.55156 0.457416
vn 0.030812 -0.022386 -0.999274
vn 0.309014 0.833835 0.457416
vn 0.747388 0.515338 -0.41933
vn -0.709302 0.515338 0.480954
vn -0.259161 -0.870056 -0.419331
vn -0.876746 0 -0.480954
vn 0.301741 0.856221 0.41933
vn -0.723607 -0.525731 0.447214
vn 0.301741 -0.856221 0.41933
vn 0.038085 0 0.999274
vn -0.240118 -0.856221 -0.457416
vn -0.240118 0.856221 -0.457416
vn -0.276393 -0.850651 -0.447214
vn 0.309014 -0.833835 0.457416
vn 0.030812 0.022386 -0.999274
vn -0.697534 0.55156 0.457416
vn -0.259161 0.870056 -0.419331
vn -0.709302 -0.515338 0.480954
vn 0.747388 -0.515338 -0.41933
vn -0.27093 -0.833835 -0.480953
vn -0.721071 0.55156 0.41933
vn 0.276393 -0.850651 0.447214
vn 0.907558 0.022386 0.41933
vn 0.011769 0.036221 0.999274
vn 0.740114 -0.492953 -0.457415
vn -0.888515 0.036221 -0.457416
vn 0.723607 -0.525731 -0.447214
vn 0.888515 0.036221 0.457416
vn -0.011769 0.036221 -0.999274
vn -0.740114 -0.492952 0.457416
vn -0.907558 0.022386 -0.41933
vn 0.27093 -0.833835 0.480953
vn 0.721071 0.55156 -0.41933
vn 0.709302 -0.515338 -0.480954
vn -0.747387 -0.515338 0.419331
vn 0.259161 0.870056 0.41933
vn -0.030812 0.022386 0.999274
vn 0.697533 0.55156 -0.457416
vn -0.309014 -0.833835 -0.457416
vn 0.240118 0.856221 0.457416
vn -0.038085 0 -0.999274
vn 0.240118 -0.856221 0.457416
vn -0.301741 -0.856221 -0.41933
vn 0.876746 0 0.480953
vn -0.301741 0.856221 -0.41933
vt 0 0.647584
vt 0.1 0.792348
vt 0.2 0.647584
vt 0 1
vt 0.1 0.560068
vt 0.1 0.352416
vt 0.3 0.352416
vt 0.2 0.439932
vt 0.2 0.207652
vt 0 0
vt 0.3 0.792348
vt 0.4 0.647584
vt 0.3 0.560068
vt 0.5 0.352416
vt 0.4 0.439932
vt 0.4 0.207652
vt 0.5 0.792348
vt 0.6 0.647584
vt 1 1
vt 0.5 0.560068
vt 0.7 0.352416
vt 0.6 0.439932
vt 0.6 0.207652
vt 1 0
vt 0.7 0.792348
vt 0.8 0.647584
vt 0.7 0.560068
vt 0.9 0.352416
vt 0.8 0.439932
vt 0.8 0.207652
vt 0.9 0.792348
vt 1 0.647584
vt 0.9 0.560068
vt 0 0.439932
vt 1 0.439932
vt 1 0.207652
vt 0 0.207652
vt 1.4 0.207652
vt 1.4 0.647584
vt 1.1 0.352416
f 1/1/1 2/2/2 2/2/3
f 3/3/4 2/2/5 2/2/2
f 4/4/6 2/2/3 2/2/5
f 2/2/3 2/2/2 2/2/5
f 3/3/4 5/5/7 5/5/8
f 1/1/1 5/5/9 5/5/7
f 6/6/10 5/5/8 5/5/9
f 5/5/8 5/5/7 5/5/9
f 7/7/11 8/8/12 8/8/13
f 3/3/4 8/8/14 8/8/12
f 6/6/10 8/8/13 8/8/14
f 8/8/13 8/8/12 8/8/14
f 6/6/10 9/9/15 9/9/16
f 10/10/17 9/9/18 9/9/15
f 7/7/11 9/9/16 9/9/18
f 9/9/16 9/9/15 9/9/18
f 3/3/4 11/11/19 11/11/20
f 12/12/21 11/11/22 11/11/19
f 4/4/6 11/11/20 11/11/22
f 11/11/20 11/11/19 11/11/22
f 12/12/21 13/13/23 13/13/24
f 3/3/4 13/13/25 13/13/23
f 7/7/11 13/13/24 13/13/25
f 13/13/24 13/13/23 13/13/25
f 14/14/26 15/15/27 15/15/28
f 12/12/21 15/15/29 15/15/27
f 7/7/11 15/15/28 15/15/29
f 15/15/28 15/15/27 15/15/29
f 7/7/11 16/16/30 16/16/31
f 10/10/17 16/16/32 16/16/30
f 14/14/26 16/16/31 16/16/32
f 16/16/31 16/16/30 16/16/32
f 12/12/21 17/17/33 17/17/34
f 18/18/35 17/17/36 17/17/33
f 4/19/6 17/17/34 17/17/36
f 17/17/34 17/17/33 17/17/36
f 18/18/35 19/20/37 19/20/38
f 12/12/21 19/20/39 19/20/37
f 14/14/26 19/20/38 19/20/39
f 19/20/38 19/20/37 19/20/39
f 20/21/40 21/22/41 21/22/42
f 18/18/35 21/22/43 21/22/41
f 14/14/26 21/22/42 21/22/43
f 21/22/42 21/22/41 21/22/43
f 14/14/26 22/23/44 22/23/45
f 10/24/17 22/23/46 22/23/44
f 20/21/40 22/23/45 22/23/46
f 22/23/45 22/23/44 22/23/46
f 18/18/35 23/25/47 23/25/48
f 24/26/49 23/25/50 23/25/47
f 4/19/6 23/25/48 23/25/50
f 23/25/48 23/25/47 23/25/50
f 24/26/49 25/27/51 25/27/52
f 18/18/35 25/27/53 25/27/51
f 20/21/40 25/27/52 25/27/53
f 25/27/52 25/27/51 25/27/53
f 26/28/54 27/29/55 27/29/56
f 24/26/49 27/29/57 27/29/55
f 20/21/40 27/29/56 27/29/57
f 27/29/56 27/29/55 27/29/57
f 20/21/40 28/30/58 28/30/59
f 10/24/17 28/30/60 28/30/58
f 26/28/54 28/30/59 28/30/60
f 28/30/59 28/30/58 28/30/60
f 24/26/49 29/31/61 29/31/62
f 1/32/1 29/31/63 29/31/61
f 4/19/6 29/31/62 29/31/63
f 29/31/62 29/31/61 29/31/63
f 1/32/1 30/33/64 30/33/65
f 24/26/49 30/33/66 30/33/64
f 26/28/54 30/33/65 30/33/66
f 30/33/65 30/33/64 30/33/66
f 6/6/10 31/34/67 31/34/68
f 1/1/1 31/34/69 31/34/67
f 26/28/54 31/35/68 31/35/69
f 31/34/68 31/34/67 31/34/69
f 26/28/54 32/36/70 32/36/71
f 10/10/17 32/37/72 32/37/70
f 6/6/10 32/37/71 32/37/72
f 32/37/71 32/37/70 32/37/72
f 1/1/1 2/2/3 4/4/6
f 3/3/4 2/2/2 1/1/1
f 4/4/6 2/2/5 3/3/4
f 3/3/4 5/5/8 6/6/10
f 1/1/1 5/5/7 3/3/4
f 6/6/10 5/5/9 1/1/1
f 7/7/11 8/8/13 6/6/10
f 3/3/4 8/8/12 7/7/11
f 6/6/10 8/8/14 3/3/4
f 6/6/10 9/9/16 7/7/11
f 10/10/17 9/9/15 6/6/10
f 7/7/11 9/9/18 10/10/17
f 3/3/4 11/11/20 4/4/6
f 12/12/21 11/11/19 3/3/4
f 4/4/6 11/11/22 12/12/21
f 12/12/21 13/13/24 7/7/11
f 3/3/4 13/13/23 12/12/21
f 7/7/11 13/13/25 3/3/4
f 14/14/26 15/15/28 7/7/11
f 12/12/21 15/15/27 14/14/26
f 7/7/11 15/15/29 12/12/21
f 7/7/11 16/16/31 14/14/26
f 10/10/17 16/16/30 7/7/11
f 14/14/26 16/38/32 10/24/17
f 12/39/21 17/17/34 4/19/6
f 18/18/35 17/17/33 12/12/21
f 4/19/6 17/17/36 18/18/35
f 18/18/35 19/20/38 14/14/26
f 12/12/21 19/20/37 18/18/35
f 14/14/26 19/20/39 12/12/21
f 20/21/40 21/22/42 14/14/26
f 18/18/35 21/22/41 20/21/40
f 14/14/26 21/22/43 18/18/35
f 14/14/26 22/23/45 20/21/40
f 10/24/17 22/23/44 14/14/26
f 20/21/40 22/23/46 10/24/17
f 18/18/35 23/25/48 4/19/6
f 24/26/49 23/25/47 18/18/35
f 4/19/6 23/25/50 24/26/49
f 24/26/49 25/27/52 20/21/40
f 18/18/35 25/27/51 24/26/49
f 20/21/40 25/27/53 18/18/35
f 26/28/54 27/29/56 20/21/40
f 24/26/49 27/29/55 26/28/54
f 20/21/40 27/29/57 24/26/49
f 20/21/40 28/30/59 26/28/54
f 10/24/17 28/30/58 20/21/40
f 26/28/54 28/30/60 10/24/17
f 24/26/49 29/31/62 4/19/6
f 1/32/1 29/31/61 24/26/49
f 4/19/6 29/31/63 1/32/1
f 1/32/1 30/33/65 26/28/54
f 24/26/49 30/33/64 1/32/1
f 26/28/54 30/33/66 24/26/49
f 6/40/10 31/35/68 26/28/54
f 1/1/1 31/34/67 6/6/10
f 26/28/54 31/35/69 1/32/1
f 26/28/54 32/36/71 6/40/10
f 10/24/17 32/36/70 26/28/54
f 6/6/10 32/37/72 10/10/17
s off
